<?xml version="1.0" encoding="UTF-8" standalone="no" ?>
<!DOCTYPE svg PUBLIC "-//W3C//DTD SVG 1.1//EN" "http://www.w3.org/Graphics/SVG/1.1/DTD/svg11.dtd">
<svg xmlns="http://www.w3.org/2000/svg" xmlns:xlink="http://www.w3.org/1999/xlink" version="1.1" width="1080" height="1080" viewBox="0 0 1080 1080" xml:space="preserve">
<desc>Created with Fabric.js 5.2.4</desc>
<defs>
</defs>
<rect x="0" y="0" width="100%" height="100%" fill="transparent"></rect>
<g transform="matrix(1 0 0 1 540 540)" id="38dbbeb4-c372-4bcd-93e1-da51942dd73e"  >
<rect style="stroke: none; stroke-width: 1; stroke-dasharray: none; stroke-linecap: butt; stroke-dashoffset: 0; stroke-linejoin: miter; stroke-miterlimit: 4; fill: rgb(255,255,255); fill-rule: nonzero; opacity: 1; visibility: hidden;" vector-effect="non-scaling-stroke"  x="-540" y="-540" rx="0" ry="0" width="1080" height="1080" />
</g>
<g transform="matrix(1 0 0 1 540 540)" id="f8d00a96-f3a1-4e14-af8c-b4c60c055670"  >
</g>
<g transform="matrix(40.77 0 0 40.77 540 540)"  >
<g style="" vector-effect="non-scaling-stroke"   >
		<g transform="matrix(1 0 0 1 0 5.31)"  >
<path style="stroke: none; stroke-width: 1; stroke-dasharray: none; stroke-linecap: butt; stroke-dashoffset: 0; stroke-linejoin: miter; stroke-miterlimit: 4; fill: rgb(255,255,255); fill-rule: nonzero; opacity: 1;" vector-effect="non-scaling-stroke"  transform=" translate(-11.92, -16.31)" d="M 23.1505 10.7255 C 22.7712 10.7255 22.4677 11.0277 22.4677 11.4056 L 22.4677 17.5919 C 22.4677 19.2746 21.0919 20.6398 19.4076 20.6398 L 4.42576 20.6398 C 2.73638 20.6398 1.36566 19.2695 1.36566 17.5919 L 1.36566 11.3048 C 1.36566 10.927 1.06218 10.6247 0.682831 10.6247 C 0.30348 10.6247 0 10.927 0 11.3048 L 0 17.5919 C 0 20.0252 1.9878 22 4.42576 22 L 19.4076 22 C 21.8506 22 23.8333 20.0202 23.8333 17.5919 L 23.8333 11.4056 C 23.8333 11.0328 23.5299 10.7255 23.1505 10.7255 Z" stroke-linecap="round" />
</g>
		<g transform="matrix(1 0 0 1 0 -2.6)"  >
<path style="stroke: none; stroke-width: 1; stroke-dasharray: none; stroke-linecap: butt; stroke-dashoffset: 0; stroke-linejoin: miter; stroke-miterlimit: 4; fill: rgb(255,255,255); fill-rule: nonzero; opacity: 1;" vector-effect="non-scaling-stroke"  transform=" translate(-11.92, -8.4)" d="M 8.05759 5.48615 L 11.234 2.32242 L 11.234 16.1209 C 11.234 16.4987 11.5375 16.801 11.9168 16.801 C 12.2962 16.801 12.5997 16.4987 12.5997 16.1209 L 12.5997 2.32242 L 15.7761 5.48615 C 15.9076 5.61713 16.0846 5.68766 16.2566 5.68766 C 16.4336 5.68766 16.6056 5.62217 16.7371 5.48615 C 17.0052 5.21914 17.0052 4.79093 16.7371 4.52393 L 12.3974 0.201511 C 12.2709 0.0755667 12.0939 0 11.9168 0 C 11.7348 0 11.5628 0.070529 11.4363 0.201511 L 7.09656 4.52393 C 6.82849 4.79093 6.82849 5.21914 7.09656 5.48615 C 7.35958 5.74811 7.79457 5.74811 8.05759 5.48615 Z" stroke-linecap="round" />
</g>
</g>
</g>
</svg>